<svg width="48" height="48" viewBox="0 0 48 48" fill="none" xmlns="http://www.w3.org/2000/svg">
<circle cx="24" cy="24" r="24" fill="#662116"/>
<path fill-rule="evenodd" clip-rule="evenodd" d="M15 15C13.6002 14.9999 12.3864 15.9678 12.075 17.3325L24 24.621L35.925 17.3325C35.6136 15.9678 34.3998 14.9999 33 15H15ZM12 29.7015V19.0455L20.7045 24.3645L12 29.7015ZM22.1415 25.245L12.2865 31.2855C12.7835 32.3335 13.8401 33.0011 15 33H33C34.1597 33.0003 35.2157 32.3321 35.712 31.284L25.857 25.2435L24 26.379L22.1415 25.2435V25.245ZM36 29.7015L27.2955 24.366V24.3645L36 19.0455V29.7015Z" fill="white"/>
</svg>
