<svg width="48" height="48" viewBox="0 0 48 48" fill="none" xmlns="http://www.w3.org/2000/svg">
<circle cx="24" cy="24" r="24" fill="#662116"/>
<path fill-rule="evenodd" clip-rule="evenodd" d="M14.8281 12.7653C15.359 12.2352 16.0919 11.9583 16.8407 12.0051C17.5895 12.0519 18.2822 12.4177 18.743 13.0098L21.4354 16.469C21.9289 17.1035 22.1029 17.93 21.9079 18.7101L21.0874 21.9952C21.0011 22.3413 21.1024 22.7073 21.3544 22.9598L25.0398 26.6454C25.2925 26.8979 25.6592 26.9993 26.0058 26.9124L29.2892 26.0919C30.0691 25.8969 30.8953 26.0711 31.5301 26.5644L34.989 29.2555C36.2324 30.2231 36.3464 32.0607 35.2335 33.1722L33.6825 34.7233C32.5726 35.8333 30.9136 36.3209 29.3672 35.7763C25.4091 34.3836 21.8153 32.1174 18.8525 29.146C15.8815 26.1834 13.6156 22.5899 12.2227 18.6321C11.6797 17.087 12.1672 15.4264 13.2772 14.3164L14.8281 12.7653Z" fill="white"/>
</svg>
