<svg width="500" height="500" viewBox="0 0 600 600" fill="none" xmlns="http://www.w3.org/2000/svg">
<path d="M96.408 296.148C-15.972 361.032 -15.972 466.236 96.408 531.12C208.788 596.004 391.008 596.004 503.388 531.12C615.768 466.236 615.78 361.032 503.388 296.148C390.996 231.264 208.8 231.264 96.408 296.148Z" fill="#FAFAFA"/>
<path d="M548.064 242.952C541.344 244.404 531.06 253.416 526.692 270.984C523.346 283.791 522.822 297.171 525.156 310.2C526.512 311.184 527.844 312.168 529.164 313.176L530.196 313.956C531.58 315.02 532.936 316.088 534.264 317.16L535.224 317.952C535.512 314.484 535.992 310.188 536.796 304.968C537.084 303.168 537.396 301.452 537.72 299.82C542.676 275.82 553.5 270.192 558.48 259.608C564.084 247.74 555.6 241.308 548.064 242.952Z" fill="#E0E0E0"/>
<path d="M549.852 249.792C539.352 259.392 527.496 284.592 530.196 313.956L529.2 313.2C526.8 283.86 538.704 258.696 549.228 249.108C549.273 249.063 549.326 249.027 549.385 249.002C549.443 248.977 549.506 248.965 549.57 248.965C549.634 248.965 549.697 248.977 549.755 249.002C549.814 249.027 549.867 249.063 549.912 249.108C549.954 249.157 549.985 249.213 550.005 249.274C550.024 249.335 550.032 249.399 550.026 249.463C550.02 249.526 550.002 249.588 549.972 249.645C549.942 249.701 549.901 249.751 549.852 249.792Z" fill="white"/>
<path d="M550.428 304.236C546.053 309.711 542.791 315.989 540.828 322.716C539.94 321.948 539.052 321.168 538.152 320.412L537.24 319.644C536.568 319.068 535.896 318.504 535.2 317.952L534.24 317.16C534.625 310.23 535.883 303.375 537.984 296.76C540.384 290.244 544.152 283.008 547.452 279.504C555.648 270.816 565.176 270 568.536 277.104C571.896 284.208 559.092 292.8 550.428 304.236Z" fill="#F0F0F0"/>
<path d="M558.576 282.78C551.772 286.908 540.216 304.968 538.176 320.412L537.264 319.644C539.556 303.936 551.052 286.224 558.084 281.952C558.138 281.92 558.199 281.898 558.261 281.889C558.324 281.88 558.387 281.884 558.449 281.899C558.51 281.915 558.568 281.942 558.618 281.98C558.669 282.018 558.712 282.066 558.744 282.12C558.776 282.174 558.798 282.235 558.807 282.297C558.816 282.36 558.812 282.423 558.797 282.485C558.781 282.546 558.754 282.604 558.716 282.654C558.678 282.705 558.63 282.748 558.576 282.78Z" fill="white"/>
<path d="M83.832 303.888C82.296 304.896 80.772 305.916 79.284 306.936C77.412 308.232 75.58 309.532 73.788 310.836C73.8298 298.296 71.4122 285.87 66.672 274.26C64.9627 270.08 62.8275 266.087 60.3 262.344C49.044 246.168 51.012 238.26 57.816 235.944C64.62 233.628 82.5 243.816 85.416 270.996C86.688 283.008 85.2 295.896 83.832 303.888Z" fill="#F0F0F0"/>
<path d="M77.196 306.228H77.112C76.9554 306.196 76.8175 306.104 76.7278 305.972C76.6381 305.839 76.6037 305.677 76.632 305.52C81.432 280.452 72.648 252.3 61.8 240.576C61.7438 240.52 61.6991 240.454 61.6687 240.381C61.6382 240.308 61.6225 240.229 61.6225 240.15C61.6225 240.071 61.6382 239.992 61.6687 239.919C61.6991 239.846 61.7438 239.78 61.8 239.724C61.9142 239.613 62.067 239.551 62.226 239.551C62.385 239.551 62.5378 239.613 62.652 239.724C73.692 251.652 82.62 280.272 77.784 305.724C77.7613 305.864 77.6898 305.991 77.5822 306.084C77.4746 306.176 77.3378 306.227 77.196 306.228Z" fill="white"/>
<path d="M80.208 302.748C80.0418 304.172 79.7323 305.575 79.284 306.936C77.412 308.232 75.58 309.532 73.788 310.836C70.812 313.012 67.948 315.22 65.196 317.46L63.996 318.42C59.644 321.996 55.568 325.652 51.768 329.388C50.472 330.048 47.028 327.084 46.068 326.376C44.4188 325.125 43.1174 323.473 42.288 321.576C41.3699 319.422 41.1394 317.038 41.628 314.748C41.8953 313.526 42.244 312.323 42.672 311.148C43.068 309.948 43.464 308.856 43.872 307.704C44.3439 306.597 44.5809 305.404 44.568 304.2C44.376 301.8 42.348 300.012 40.488 298.476C38.436 296.772 36.324 294.552 36.48 291.672C36.7469 289.445 37.7426 287.37 39.312 285.768C40.776 284.1 42.492 282.636 43.824 280.86C44.8663 279.629 45.4588 278.08 45.504 276.468C45.418 275.473 45.1323 274.506 44.664 273.624C43.5913 271.779 42.6645 269.853 41.892 267.864C41.292 265.812 41.52 263.316 43.164 261.948C43.8935 261.461 44.7129 261.124 45.5741 260.957C46.4354 260.79 47.3213 260.796 48.18 260.976C49.8041 261.257 51.3477 261.888 52.704 262.824C57.144 265.596 59.484 271.14 64.224 273.336C65.0279 273.697 65.8634 273.982 66.72 274.188C67.812 274.488 68.94 274.716 70.02 275.064C71.0079 275.305 71.9345 275.749 72.7404 276.369C73.5464 276.989 74.2138 277.771 74.7 278.664C76.296 282.264 72.78 286.524 73.836 290.364C74.496 292.764 76.236 294.192 77.868 295.932C78.268 296.353 78.637 296.802 78.972 297.276C79.2129 297.599 79.4295 297.94 79.62 298.296C80.2856 299.679 80.4916 301.239 80.208 302.748Z" fill="#E0E0E0"/>
<path d="M65.196 317.46L63.996 318.42C64.788 296.892 56.04 273.792 49.08 266.58C49.0267 266.527 48.9843 266.465 48.9554 266.396C48.9265 266.327 48.9116 266.253 48.9116 266.178C48.9116 266.103 48.9265 266.029 48.9554 265.96C48.9843 265.891 49.0267 265.828 49.08 265.776C49.1876 265.671 49.3318 265.612 49.482 265.612C49.6322 265.612 49.7764 265.671 49.884 265.776C56.916 273.024 65.676 295.92 65.196 317.46Z" fill="white"/>
<path d="M62.076 295.056C62.0206 295.067 61.9634 295.067 61.908 295.056C56.6131 293.317 51.145 292.158 45.6 291.6C45.5258 291.594 45.4536 291.573 45.3875 291.539C45.3213 291.505 45.2626 291.458 45.2146 291.401C45.1666 291.345 45.1304 291.279 45.108 291.208C45.0856 291.137 45.0774 291.062 45.084 290.988C45.0883 290.912 45.1082 290.838 45.1425 290.77C45.1768 290.702 45.2248 290.642 45.2834 290.594C45.3419 290.545 45.4099 290.51 45.483 290.489C45.556 290.468 45.6327 290.462 45.708 290.472C51.3532 291.032 56.9191 292.215 62.304 294C62.4251 294.053 62.5245 294.146 62.5853 294.263C62.646 294.38 62.6646 294.515 62.6379 294.644C62.6112 294.774 62.5408 294.89 62.4384 294.974C62.3361 295.058 62.2082 295.103 62.076 295.104V295.056Z" fill="white"/>
<path d="M281.016 301.284L115.2 397.032C112.536 398.568 112.536 401.064 115.2 402.612L343.008 533.772C344.505 534.529 346.16 534.924 347.838 534.924C349.516 534.924 351.171 534.529 352.668 533.772L518.484 438C521.16 436.464 521.16 433.968 518.484 432.42L290.676 301.284C289.179 300.527 287.524 300.132 285.846 300.132C284.168 300.132 282.513 300.527 281.016 301.284Z" fill="#E0E0E0"/>
<path d="M194.028 407.556C224.028 425.1 224.028 453.552 194.028 471.096C164.028 488.64 115.26 488.64 85.212 471.096C55.164 453.552 55.212 425.1 85.212 407.556C115.212 390.012 163.98 390 194.028 407.556Z" fill="#E0E0E0"/>
<path d="M57.924 475.008C80.256 491.376 103.848 494.904 129.18 496.08C145.98 496.848 162.78 495.708 179.436 494.028C186.888 493.272 194.316 492.384 201.732 491.472C209.748 490.476 217.752 489.444 225.84 489.696C231.744 489.876 238.044 490.512 243.564 493.212C248.904 495.816 252.492 501.252 250.404 507.312C249.393 509.914 247.834 512.267 245.832 514.212C239.52 520.872 231.72 525.432 227.208 533.82C225.672 536.7 224.448 541.344 226.092 544.164C230.124 551.052 244.092 551.04 250.416 550.788C268.02 550.068 278.652 547.332 290.532 542.976C308.784 536.268 323.22 526.176 336.384 516.012C340.296 512.988 344.448 510.24 348.384 507.168C349.044 506.64 349.368 508.2 348.888 508.62C342.588 514.176 335.604 518.772 329.196 524.124C323.228 529.081 316.752 533.393 309.876 536.988C296.196 544.188 287.928 548.136 271.608 551.592C267.54 552.456 257.868 553.704 253.716 553.992C246.789 554.617 239.813 554.424 232.932 553.416C228.78 552.744 223.14 550.212 221.556 545.616C219.756 540.408 221.556 535.284 224.376 530.772C227.226 526.519 230.705 522.723 234.696 519.516C237.384 517.116 241.788 513.444 243.9 510.564C251.88 499.632 240.3 494.736 230.94 493.68C223.669 492.997 216.345 493.114 209.1 494.028C201.9 494.904 194.328 496.188 187.164 496.992C170.792 499.037 154.307 500.035 137.808 499.98C129.732 499.884 119.484 499.212 111.24 498.3C84.756 495.396 63.324 484.668 54.348 473.856C53.352 472.656 51.828 470.184 52.596 469.776C54.1644 471.72 55.9523 473.475 57.924 475.008Z" fill="#BA68C8"/>
<path d="M518.304 468.468C513.32 468.665 508.478 470.185 504.276 472.872C501.147 475.086 498.743 478.176 497.364 481.752C494.844 487.848 494.964 494.244 491.904 500.28C488.844 506.316 480.552 511.308 469.32 512.496C464.615 512.963 459.866 512.668 455.256 511.62C461.496 506.976 465.468 501.216 462.612 495.348C461.57 493.354 460.059 491.642 458.209 490.361C456.359 489.08 454.226 488.267 451.992 487.992C445.992 487.152 439.752 490.464 436.74 493.104C429.636 499.356 435.876 507.408 445.356 511.512C446.232 511.896 447.156 512.232 448.092 512.556C441.241 516.532 433.774 519.339 426 520.86C415.922 523.037 405.511 523.184 395.376 521.292C384.911 519.04 375.175 514.205 367.056 507.228C365.22 505.728 363.36 504.252 361.416 502.8C360.672 502.248 357.672 502.368 358.344 503.292C363.708 510.708 373.572 517.692 385.68 521.808C395.928 525.252 408.06 525.924 419.532 524.52C429.972 523.338 440.102 520.234 449.412 515.364C450.36 514.848 451.284 514.296 452.196 513.732C461.271 515.845 470.742 515.543 479.664 512.856C490.392 509.496 495.9 503.484 498.072 496.752C500.16 490.26 499.764 483.384 504.372 477.228C507.12 473.532 512.076 470.592 519.216 470.088C524.752 469.525 530.316 470.858 534.996 473.868C536.848 475.11 538.293 476.872 539.148 478.932C539.232 479.148 540.132 479.424 540.132 479.064C540 472.572 529.2 467.748 518.304 468.468ZM441.144 504.468C438.384 501.516 437.16 497.904 439.944 494.808C441.561 493.203 443.511 491.974 445.656 491.208C446.791 490.682 448.009 490.357 449.256 490.248C450.54 490.28 451.797 490.626 452.916 491.256C457.104 493.44 458.916 496.872 458.748 500.064C458.556 503.664 455.88 507.012 452.172 509.88C451.884 510.108 451.56 510.312 451.26 510.54C447.45 509.345 443.981 507.255 441.144 504.444V504.468Z" fill="#455A64"/>
<path d="M291.096 302.94L130.8 387.384L127.5 392.568V396.744C127.532 397.825 127.855 398.878 128.436 399.791C129.017 400.703 129.834 401.442 130.8 401.928L342.084 523.944C343.779 524.842 345.668 525.312 347.586 525.312C349.504 525.312 351.393 524.842 353.088 523.944L509.868 433.428V429.252L291.096 302.94Z" fill="#263238"/>
<path d="M347.592 521.136C345.668 521.166 343.77 520.694 342.084 519.768L130.8 397.752C129.815 397.291 128.981 396.558 128.397 395.64C127.813 394.722 127.503 393.656 127.503 392.568C127.503 391.48 127.813 390.414 128.397 389.496C128.981 388.578 129.815 387.845 130.8 387.384L284.04 298.872L509.868 429.252L353.088 519.768C351.406 520.693 349.512 521.164 347.592 521.136Z" fill="#BA68C8"/>
<path d="M284.04 286.62L132.48 374.124L130.92 376.296V392.568C130.963 393.036 131.13 393.484 131.405 393.866C131.679 394.248 132.05 394.55 132.48 394.74L343.824 516.756C344.988 517.353 346.278 517.664 347.586 517.664C348.894 517.664 350.184 517.353 351.348 516.756L502.92 429.252V412.992L284.04 286.62Z" fill="#EBEBEB"/>
<path d="M502.932 412.992L501.036 414.084L476.4 428.328L471.816 430.98L351.36 500.496C350.194 501.087 348.905 501.396 347.598 501.396C346.291 501.396 345.002 501.087 343.836 500.496L132.468 378.468C130.404 377.268 130.404 375.312 132.468 374.112L134.484 372.912L284.04 286.62L501.048 411.9L501.504 412.176L502.932 412.992Z" fill="#F0F0F0"/>
<path d="M347.58 501.396V517.668C346.274 517.697 344.983 517.383 343.836 516.756L132.468 394.728C132.04 394.537 131.67 394.235 131.398 393.853C131.126 393.471 130.961 393.023 130.92 392.556V376.296C130.967 376.761 131.134 377.207 131.406 377.588C131.677 377.969 132.043 378.272 132.468 378.468L343.836 500.496C344.984 501.119 346.275 501.429 347.58 501.396Z" fill="#E0E0E0"/>
<path d="M502.932 410.82L475.632 426.576L471.36 428.976L351.36 498.264C350.194 498.855 348.905 499.164 347.598 499.164C346.291 499.164 345.002 498.855 343.836 498.264L154.56 389.052C152.856 388.116 151.272 387.192 149.76 386.304C142.056 381.612 137.424 377.424 134.448 372.948L134.088 372.396C133.849 372.059 133.686 371.674 133.608 371.268C133.479 370.412 133.682 369.539 134.175 368.828C134.667 368.116 135.413 367.62 136.26 367.44C141.221 365.994 146.006 364.002 150.528 361.5L150.72 361.392L284.04 284.4L502.932 410.82Z" fill="white"/>
<path opacity="0.1" d="M474.672 408.912C472.74 410.04 472.74 411.864 474.672 412.992C475.761 413.548 476.966 413.838 478.188 413.838C479.41 413.838 480.615 413.548 481.704 412.992C483.648 411.864 483.648 410.04 481.704 408.912C480.615 408.356 479.41 408.066 478.188 408.066C476.966 408.066 475.761 408.356 474.672 408.912Z" fill="black"/>
<path d="M497.256 395.736C494.58 394.188 491.256 394.428 487.8 396.396C482.508 399.468 477.912 406.32 475.92 413.496C476.756 413.765 477.636 413.871 478.512 413.808C480.348 407.412 484.416 401.388 489.108 398.652C490.408 397.851 491.891 397.396 493.416 397.332C494.307 397.327 495.184 397.555 495.96 397.992C498.216 399.3 499.56 402.48 499.56 406.704C499.562 407.402 499.522 408.099 499.44 408.792L501.9 410.208C502.076 409.048 502.165 407.877 502.164 406.704C502.128 401.52 500.4 397.524 497.256 395.736Z" fill="#263238"/>
<path d="M501.6 411.6C501.575 411.803 501.535 412.003 501.48 412.2L501.024 411.924L501.6 411.6Z" fill="#263238"/>
<path opacity="0.1" d="M453.504 396.684C451.572 397.812 451.572 399.636 453.504 400.752C454.59 401.308 455.794 401.598 457.014 401.598C458.235 401.598 459.438 401.308 460.524 400.752C462.48 399.636 462.48 397.812 460.524 396.684C459.438 396.128 458.235 395.838 457.014 395.838C455.794 395.838 454.59 396.128 453.504 396.684Z" fill="black"/>
<path d="M476.088 383.508C473.4 381.96 470.088 382.2 466.62 384.168C461.328 387.24 456.732 394.092 454.74 401.268C455.577 401.531 456.456 401.636 457.332 401.58C459.168 395.184 463.236 389.148 467.928 386.424C469.226 385.619 470.71 385.164 472.236 385.104C473.127 385.099 474.004 385.327 474.78 385.764C477.036 387.06 478.38 390.252 478.38 394.464C478.382 395.162 478.342 395.859 478.26 396.552L480.72 397.98C480.896 396.816 480.985 395.641 480.984 394.464C480.948 389.292 479.172 385.296 476.088 383.508Z" fill="#263238"/>
<path opacity="0.1" d="M432.312 384.456C430.38 385.572 430.38 387.396 432.312 388.524C433.401 389.08 434.606 389.37 435.828 389.37C437.05 389.37 438.255 389.08 439.344 388.524C441.288 387.396 441.288 385.572 439.344 384.456C438.255 383.9 437.05 383.61 435.828 383.61C434.606 383.61 433.401 383.9 432.312 384.456Z" fill="black"/>
<path d="M454.896 371.268C452.22 369.72 448.896 369.972 445.44 371.928C440.136 375.012 435.552 381.852 433.548 389.04C434.387 389.296 435.264 389.402 436.14 389.352C437.988 382.956 442.056 376.92 446.748 374.196C448.044 373.386 449.529 372.927 451.056 372.864C451.949 372.857 452.827 373.089 453.6 373.536C455.856 374.832 457.2 378.012 457.2 382.236C457.202 382.934 457.162 383.631 457.08 384.324L459.552 385.752C459.722 384.588 459.81 383.413 459.816 382.236C459.768 377.064 457.992 373.056 454.896 371.268Z" fill="#263238"/>
<path opacity="0.1" d="M411.132 372.228C409.2 373.344 409.2 375.168 411.132 376.296C412.221 376.852 413.426 377.142 414.648 377.142C415.87 377.142 417.075 376.852 418.164 376.296C420.108 375.168 420.108 373.344 418.164 372.228C417.075 371.672 415.87 371.382 414.648 371.382C413.426 371.382 412.221 371.672 411.132 372.228Z" fill="black"/>
<path d="M433.716 359.04C431.04 357.492 427.716 357.744 424.26 359.712C418.956 362.784 414.372 369.636 412.368 376.812C413.207 377.068 414.084 377.174 414.96 377.124C416.808 370.728 420.876 364.692 425.568 361.968C426.865 361.161 428.35 360.707 429.876 360.648C430.763 360.641 431.637 360.869 432.408 361.308C434.676 362.604 436.008 365.784 436.008 370.008C436.01 370.706 435.97 371.403 435.888 372.096L438.36 373.524C438.53 372.36 438.618 371.185 438.624 370.008C438.588 364.8 436.8 360.84 433.716 359.04Z" fill="#263238"/>
<path opacity="0.1" d="M390 360C388.068 361.128 388.068 362.952 390 364.08C391.086 364.636 392.289 364.926 393.51 364.926C394.73 364.926 395.934 364.636 397.02 364.08C398.976 362.952 398.976 361.128 397.02 360C395.931 359.451 394.729 359.166 393.51 359.166C392.291 359.166 391.089 359.451 390 360Z" fill="black"/>
<path d="M412.536 346.8C409.86 345.252 406.536 345.504 403.08 347.46C397.776 350.544 393.192 357.384 391.188 364.572C392.027 364.828 392.904 364.934 393.78 364.884C395.628 358.488 399.684 352.452 404.388 349.728C405.684 348.918 407.169 348.459 408.696 348.396C409.585 348.388 410.46 348.62 411.228 349.068C413.496 350.364 414.828 353.544 414.828 357.768C414.83 358.466 414.79 359.163 414.708 359.856L417.18 361.284C417.346 360.119 417.43 358.945 417.432 357.768C417.396 352.608 415.632 348.6 412.536 346.8Z" fill="#263238"/>
<path opacity="0.1" d="M368.76 347.76C366.828 348.888 366.828 350.712 368.76 351.84C369.849 352.396 371.054 352.686 372.276 352.686C373.498 352.686 374.703 352.396 375.792 351.84C377.736 350.712 377.736 348.888 375.792 347.76C374.703 347.204 373.498 346.914 372.276 346.914C371.054 346.914 369.849 347.204 368.76 347.76Z" fill="black"/>
<path d="M391.344 334.584C388.668 333.036 385.344 333.276 381.888 335.244C376.596 338.328 372 345.168 370.008 352.344C370.841 352.61 371.715 352.72 372.588 352.668C374.436 346.272 378.504 340.236 383.196 337.5C384.496 336.699 385.979 336.244 387.504 336.18C388.395 336.175 389.272 336.403 390.048 336.84C392.304 338.148 393.648 341.328 393.648 345.552C393.65 346.25 393.61 346.947 393.528 347.64L395.928 349.068C396.104 347.904 396.192 346.729 396.192 345.552C396.216 340.368 394.44 336.372 391.344 334.584Z" fill="#263238"/>
<path opacity="0.1" d="M347.58 335.532C345.66 336.66 345.66 338.484 347.58 339.612C348.669 340.168 349.874 340.458 351.096 340.458C352.318 340.458 353.523 340.168 354.612 339.612C356.556 338.484 356.556 336.66 354.612 335.532C353.523 334.976 352.318 334.686 351.096 334.686C349.874 334.686 348.669 334.976 347.58 335.532Z" fill="black"/>
<path d="M370.164 322.356C367.488 320.808 364.164 321.048 360.708 323.016C355.416 326.088 350.82 332.94 348.828 340.116C349.66 340.385 350.536 340.49 351.408 340.428C353.256 334.032 357.324 328.008 362.016 325.272C363.316 324.472 364.799 324.018 366.324 323.952C367.215 323.947 368.092 324.175 368.868 324.612C371.124 325.92 372.468 329.1 372.468 333.324C372.47 334.022 372.43 334.719 372.348 335.412L374.808 336.84C374.984 335.676 375.072 334.501 375.072 333.324C375.036 328.14 373.26 324.144 370.164 322.356Z" fill="#263238"/>
<path opacity="0.1" d="M326.4 323.304C324.468 324.432 324.468 326.256 326.4 327.384C327.489 327.94 328.694 328.23 329.916 328.23C331.138 328.23 332.343 327.94 333.432 327.384C335.376 326.256 335.376 324.432 333.432 323.304C332.343 322.748 331.138 322.458 329.916 322.458C328.694 322.458 327.489 322.748 326.4 323.304Z" fill="black"/>
<path d="M348.984 310.128C346.308 308.58 342.984 308.82 339.528 310.788C334.224 313.86 329.64 320.712 327.636 327.888C328.472 328.156 329.352 328.262 330.228 328.2C332.076 321.804 336.132 315.78 340.836 313.044C342.136 312.243 343.619 311.788 345.144 311.724C346.031 311.719 346.904 311.947 347.676 312.384C349.944 313.692 351.276 316.872 351.276 321.096C351.278 321.794 351.238 322.491 351.156 323.184L353.628 324.612C353.798 323.448 353.886 322.273 353.892 321.096C353.856 315.912 352.08 311.916 348.984 310.128Z" fill="#263238"/>
<path opacity="0.1" d="M305.22 311.076C303.288 312.192 303.288 314.028 305.22 315.144C306.309 315.7 307.514 315.99 308.736 315.99C309.958 315.99 311.163 315.7 312.252 315.144C314.196 314.028 314.196 312.192 312.252 311.076C311.163 310.52 309.958 310.23 308.736 310.23C307.514 310.23 306.309 310.52 305.22 311.076Z" fill="black"/>
<path d="M327.804 297.9C325.128 296.352 321.804 296.592 318.348 298.56C313.044 301.632 308.46 308.484 306.456 315.66C307.294 315.921 308.172 316.027 309.048 315.972C310.896 309.576 314.964 303.54 319.656 300.816C320.953 300.009 322.438 299.555 323.964 299.496C324.851 299.489 325.725 299.717 326.496 300.156C328.764 301.452 330.096 304.644 330.096 308.868C330.098 309.562 330.058 310.255 329.976 310.944L332.448 312.372C332.618 311.212 332.706 310.041 332.712 308.868C332.676 303.684 330.9 299.688 327.804 297.9Z" fill="#263238"/>
<path opacity="0.1" d="M284.04 298.8C282.108 299.928 282.108 301.752 284.04 302.868C285.126 303.424 286.33 303.714 287.55 303.714C288.771 303.714 289.974 303.424 291.06 302.868C293.016 301.752 293.016 299.928 291.06 298.8C289.974 298.244 288.771 297.954 287.55 297.954C286.33 297.954 285.126 298.244 284.04 298.8Z" fill="black"/>
<path d="M306.624 285.672C303.936 284.124 300.624 284.364 297.168 286.332C291.864 289.404 287.28 296.256 285.276 303.432C286.114 303.693 286.992 303.799 287.868 303.744C289.704 297.348 293.772 291.312 298.464 288.588C299.765 287.781 301.254 287.327 302.784 287.268C303.671 287.265 304.544 287.492 305.316 287.928C307.572 289.236 308.916 292.416 308.916 296.64C308.918 297.334 308.878 298.027 308.796 298.716L311.256 300.144C311.432 298.984 311.52 297.813 311.52 296.64C311.484 291.456 309.708 287.46 306.624 285.672Z" fill="#263238"/>
<path d="M346.116 490.476C345.126 490.486 344.15 490.237 343.284 489.756L330.432 482.4C330.038 482.222 329.7 481.94 329.452 481.585C329.205 481.23 329.059 480.815 329.028 480.384C329.04 480.031 329.149 479.688 329.341 479.392C329.533 479.096 329.803 478.859 330.12 478.704L451.692 408.48C452.494 408.107 453.373 407.929 454.258 407.96C455.142 407.992 456.006 408.231 456.78 408.66L469.632 416.088C470.028 416.265 470.369 416.545 470.618 416.9C470.868 417.255 471.016 417.671 471.048 418.104C471.033 418.458 470.923 418.801 470.728 419.097C470.534 419.393 470.263 419.63 469.944 419.784L348.372 489.948C347.679 490.317 346.901 490.499 346.116 490.476ZM453.936 409.26C453.386 409.242 452.84 409.366 452.352 409.62L330.78 479.784C330.612 479.88 330.336 480.072 330.336 480.324C330.336 480.576 330.54 480.888 331.092 481.212L343.944 488.628C344.519 488.944 345.158 489.124 345.813 489.155C346.468 489.186 347.122 489.068 347.724 488.808L469.296 418.644C469.452 418.548 469.728 418.356 469.728 418.104C469.728 417.852 469.536 417.54 468.972 417.216L456.12 409.8C455.448 409.442 454.698 409.256 453.936 409.26Z" fill="#E0E0E0"/>
<path d="M464.559 414.26L338.308 486.818L338.962 487.956L465.213 415.398L464.559 414.26Z" fill="#E0E0E0"/>
<path d="M318.792 474.696C317.803 474.704 316.829 474.46 315.96 473.988L148.716 377.424C148.32 377.247 147.979 376.967 147.73 376.612C147.48 376.257 147.332 375.841 147.3 375.408C147.315 375.054 147.425 374.711 147.62 374.415C147.814 374.12 148.085 373.882 148.404 373.728L270 303.6C270.802 303.223 271.682 303.044 272.567 303.077C273.453 303.111 274.317 303.356 275.088 303.792L442.332 400.344C442.728 400.521 443.069 400.802 443.318 401.157C443.568 401.511 443.716 401.927 443.748 402.36C443.733 402.714 443.623 403.057 443.428 403.353C443.234 403.649 442.963 403.886 442.644 404.04L321.048 474.168C320.355 474.537 319.577 474.719 318.792 474.696ZM272.22 304.296C271.666 304.28 271.117 304.404 270.624 304.656L149.052 374.868C148.896 374.964 148.62 375.156 148.62 375.408C148.62 375.66 148.812 375.972 149.376 376.296L316.62 472.8C317.191 473.119 317.829 473.301 318.483 473.333C319.137 473.364 319.789 473.243 320.388 472.98L441.972 402.816C442.128 402.72 442.404 402.528 442.404 402.276C442.404 402.024 442.2 401.724 441.648 401.4L274.404 304.884C273.732 304.526 272.981 304.34 272.22 304.344V304.296Z" fill="#E0E0E0"/>
<path d="M435.363 396.669L309.689 469.227L310.343 470.36L436.017 397.802L435.363 396.669Z" fill="#E0E0E0"/>
<path d="M426.76 391.689L301.086 464.247L301.74 465.38L427.414 392.822L426.76 391.689Z" fill="#E0E0E0"/>
<path d="M418.14 386.704L292.466 459.262L293.12 460.395L418.794 387.837L418.14 386.704Z" fill="#E0E0E0"/>
<path d="M409.537 381.748L283.863 454.306L284.517 455.438L410.191 382.88L409.537 381.748Z" fill="#E0E0E0"/>
<path d="M400.909 376.835L275.222 449.371L275.876 450.504L401.562 377.968L400.909 376.835Z" fill="#E0E0E0"/>
<path d="M392.31 371.811L266.635 444.369L267.289 445.502L392.964 372.944L392.31 371.811Z" fill="#E0E0E0"/>
<path d="M383.688 366.856L258.014 439.414L258.668 440.547L384.342 367.989L383.688 366.856Z" fill="#E0E0E0"/>
<path d="M375.087 361.87L249.412 434.428L250.066 435.56L375.741 363.002L375.087 361.87Z" fill="#E0E0E0"/>
<path d="M366.483 356.901L240.809 429.459L241.463 430.592L367.137 358.034L366.483 356.901Z" fill="#E0E0E0"/>
<path d="M357.852 351.94L232.178 424.498L232.832 425.631L358.506 353.073L357.852 351.94Z" fill="#E0E0E0"/>
<path d="M349.246 347L223.559 419.536L224.213 420.669L349.9 348.133L349.246 347Z" fill="#E0E0E0"/>
<path d="M340.647 341.986L214.973 414.544L215.627 415.676L341.301 343.118L340.647 341.986Z" fill="#E0E0E0"/>
<path d="M332.043 337.005L206.369 409.563L207.023 410.696L332.697 338.138L332.043 337.005Z" fill="#E0E0E0"/>
<path d="M323.412 332.056L197.738 404.614L198.392 405.747L324.066 333.189L323.412 332.056Z" fill="#E0E0E0"/>
<path d="M314.81 327.07L189.136 399.628L189.79 400.761L315.464 328.203L314.81 327.07Z" fill="#E0E0E0"/>
<path d="M306.207 322.101L180.533 394.659L181.187 395.792L306.861 323.234L306.207 322.101Z" fill="#E0E0E0"/>
<path d="M297.593 317.127L171.919 389.685L172.573 390.818L298.247 318.26L297.593 317.127Z" fill="#E0E0E0"/>
<path d="M288.969 312.2L163.282 384.736L163.936 385.869L289.623 313.333L288.969 312.2Z" fill="#E0E0E0"/>
<path d="M280.37 307.186L154.696 379.744L155.35 380.877L281.024 308.319L280.37 307.186Z" fill="#E0E0E0"/>
<path d="M438 406.584C437.882 406.582 437.766 406.549 437.664 406.488L265.668 307.2C265.591 307.159 265.523 307.103 265.469 307.034C265.414 306.966 265.375 306.887 265.352 306.802C265.329 306.718 265.325 306.63 265.338 306.543C265.351 306.457 265.382 306.374 265.428 306.3C265.47 306.226 265.527 306.161 265.595 306.108C265.662 306.056 265.739 306.017 265.822 305.995C265.905 305.973 265.991 305.967 266.076 305.978C266.16 305.989 266.242 306.017 266.316 306.06L438.312 405.36C438.386 405.402 438.452 405.459 438.504 405.527C438.556 405.594 438.595 405.672 438.617 405.754C438.639 405.837 438.645 405.923 438.634 406.008C438.623 406.092 438.595 406.174 438.552 406.248C438.498 406.348 438.419 406.432 438.322 406.491C438.225 406.55 438.114 406.582 438 406.584Z" fill="#BA68C8"/>
<path d="M354.828 274.308C350.184 271.032 350.604 266.436 355.764 264.06C358.646 262.913 361.757 262.464 364.846 262.747C367.934 263.031 370.912 264.04 373.536 265.692C378.18 268.98 377.748 273.564 372.588 275.952C369.707 277.094 366.597 277.54 363.511 277.255C360.425 276.969 357.45 275.959 354.828 274.308Z" fill="#263238"/>
<path d="M375.828 273.468L373.8 273.276C373.301 272.117 372.464 271.134 371.4 270.456C369.273 269.119 366.861 268.301 364.359 268.07C361.857 267.838 359.336 268.2 357 269.124C355.838 269.605 354.844 270.419 354.144 271.464L352.116 271.284L354.108 275.196C354.626 276.106 355.349 276.882 356.22 277.464C358.349 278.796 360.761 279.61 363.262 279.842C365.762 280.073 368.283 279.715 370.62 278.796C371.578 278.377 372.428 277.745 373.104 276.948L375.828 273.468Z" fill="#263238"/>
<path d="M350.88 270.612C344.016 265.74 344.664 258.948 352.308 255.456C359.952 251.964 371.712 253.056 378.576 257.94C385.44 262.824 384.78 269.604 377.136 273.096C369.492 276.588 357.732 275.484 350.88 270.612Z" fill="#455A64"/>
<path d="M350.616 268.104C343.512 263.052 344.184 256.02 352.116 252.384C360.048 248.748 372.24 249.912 379.344 254.964C386.448 260.016 385.788 267.06 377.856 270.684C369.924 274.308 357.732 273.168 350.616 268.104Z" fill="#37474F"/>
<path d="M350.532 265.344C343.248 260.16 343.932 252.936 352.068 249.216C360.204 245.496 372.696 246.684 379.992 251.868C387.288 257.052 386.592 264.264 378.456 267.984C370.32 271.704 357.828 270.516 350.532 265.344Z" fill="#455A64"/>
<path d="M350.4 262.572C342.936 257.256 343.632 249.864 351.972 246.048C360.312 242.232 373.116 243.444 380.58 248.76C388.044 254.076 387.348 261.468 379.02 265.284C370.692 269.1 357.924 267.876 350.4 262.572Z" fill="#37474F"/>
<path d="M350.4 259.8C342.756 254.352 343.476 246.78 352.008 242.88C360.54 238.98 373.608 240.216 381.312 245.652C389.016 251.088 388.236 258.672 379.704 262.572C371.172 266.472 358.02 265.2 350.4 259.8Z" fill="#455A64"/>
<path d="M350.28 257.028C342.456 251.46 343.188 243.708 351.924 239.712C360.66 235.716 374.088 236.988 381.924 242.556C389.76 248.124 389.016 255.864 380.28 259.872C371.544 263.88 358.104 262.596 350.28 257.028Z" fill="#37474F"/>
<path d="M389.328 240.924C389.628 237.648 387.768 234.168 383.676 231.264C375.48 225.432 361.428 224.064 352.296 228.288C347.724 230.376 345.24 233.448 344.94 236.688C344.82 237.96 344.34 242.952 344.22 244.224C343.908 247.512 345.768 250.992 349.872 253.896C358.068 259.728 372.12 261.096 381.264 256.872C385.824 254.784 388.308 251.712 388.608 248.472C388.728 247.2 389.208 242.208 389.328 240.924Z" fill="#BA68C8"/>
<path d="M381.492 87.324C372.725 86.4903 363.88 87.392 355.462 89.9774C347.043 92.5629 339.217 96.7815 332.429 102.392C325.642 108.003 320.026 114.896 315.903 122.678C311.78 130.459 309.231 138.977 308.4 147.744C303.372 200.724 346.26 213.672 344.232 235.02C343.92 238.428 345.84 242.04 350.088 245.064C358.596 251.064 373.176 252.492 382.656 248.148C387.456 245.976 389.964 242.784 390.288 239.388C392.316 218.028 436.872 213.372 441.888 160.392C443.565 142.694 438.145 125.055 426.819 111.353C415.493 97.6505 399.189 89.0074 381.492 87.324Z" fill="#BA68C8"/>
<g style="mix-blend-mode:screen" opacity="0.9">
<path d="M381.492 87.324C372.725 86.4903 363.88 87.392 355.462 89.9774C347.043 92.5629 339.217 96.7815 332.429 102.392C325.642 108.003 320.026 114.896 315.903 122.678C311.78 130.459 309.231 138.977 308.4 147.744C303.372 200.724 346.26 213.672 344.232 235.02C343.92 238.428 345.84 242.04 350.088 245.064C358.596 251.064 373.176 252.492 382.656 248.148C387.456 245.976 389.964 242.784 390.288 239.388C392.316 218.028 436.872 213.372 441.888 160.392C443.565 142.694 438.145 125.055 426.819 111.353C415.493 97.6505 399.189 89.0074 381.492 87.324Z" fill="white"/>
</g>
<path d="M352.92 243.888C345.804 238.836 346.476 231.804 354.408 228.168C362.34 224.532 374.532 225.696 381.636 230.748C388.74 235.8 388.08 242.844 380.148 246.48C372.216 250.116 360 248.952 352.92 243.888Z" fill="#BA68C8"/>
<path opacity="0.55" d="M352.92 243.888C345.804 238.836 346.476 231.804 354.408 228.168C362.34 224.532 374.532 225.696 381.636 230.748C388.74 235.8 388.08 242.844 380.148 246.48C372.216 250.116 360 248.952 352.92 243.888Z" fill="white"/>
<path opacity="0.25" d="M383.64 244.296C382.584 245.184 381.408 245.919 380.148 246.48C372.216 250.08 360.024 248.952 352.92 243.9C351.791 243.112 350.778 242.171 349.908 241.104C350.959 240.215 352.13 239.479 353.388 238.92C361.32 235.32 373.524 236.436 380.628 241.5C381.76 242.284 382.774 243.226 383.64 244.296Z" fill="#BA68C8"/>
<path d="M383.64 244.296C382.584 245.184 381.408 245.919 380.148 246.48C372.216 250.08 360.024 248.952 352.92 243.9C351.791 243.112 350.778 242.171 349.908 241.104C350.959 240.215 352.13 239.479 353.388 238.92C361.32 235.32 373.524 236.436 380.628 241.5C381.76 242.284 382.774 243.226 383.64 244.296Z" fill="#BA68C8"/>
<path opacity="0.35" d="M383.64 244.296C382.584 245.184 381.408 245.919 380.148 246.48C372.216 250.08 360.024 248.952 352.92 243.9C351.791 243.112 350.778 242.171 349.908 241.104C350.959 240.215 352.13 239.479 353.388 238.92C361.32 235.32 373.524 236.436 380.628 241.5C381.76 242.284 382.774 243.226 383.64 244.296Z" fill="white"/>
<path opacity="0.35" d="M430.632 127.392C427.032 120.66 421.032 114.864 412.896 117.48C412.022 117.768 411.191 118.172 410.424 118.68C409.042 119.668 407.939 120.995 407.22 122.534C406.501 124.072 406.191 125.771 406.32 127.464C406.656 134.016 412.488 138.624 415.608 143.988C419.039 149.867 421.403 156.306 422.592 163.008C422.865 165.431 423.388 167.82 424.152 170.136C424.677 171.327 425.626 172.28 426.815 172.81C428.004 173.34 429.347 173.409 430.584 173.004C433.308 171.876 434.964 168.756 435.564 166.248C439.2 151.32 437.148 139.74 430.632 127.392ZM427.2 177.048C426.014 176.891 424.809 177.126 423.769 177.718C422.729 178.309 421.911 179.224 421.44 180.324C421.041 181.278 420.846 182.304 420.869 183.338C420.891 184.372 421.131 185.389 421.572 186.324C422.088 187.329 422.98 188.091 424.053 188.443C425.127 188.796 426.296 188.712 427.308 188.208C428.333 187.676 429.21 186.898 429.86 185.942C430.509 184.987 430.911 183.885 431.028 182.736C431.232 180.324 429.9 177.6 427.2 177.048Z" fill="white"/>
<path d="M374.4 244.716L373.632 244.644C375.876 220.896 378.672 206.136 382.968 195.312C384.062 192.515 385.416 189.828 387.012 187.284C381.653 184.916 376.855 181.44 372.936 177.084C368.274 180.63 362.912 183.146 357.204 184.464C358.303 187.257 359.127 190.151 359.664 193.104C361.86 204.54 361.824 219.564 359.58 243.312L358.8 243.24C361.044 219.564 361.08 204.612 358.908 193.248C358.361 190.293 357.525 187.399 356.412 184.608C355.662 184.748 354.905 184.844 354.144 184.896C346.26 185.46 341.952 182.796 340.548 180.096C340.068 179.185 339.876 178.15 339.999 177.127C340.121 176.105 340.551 175.144 341.232 174.372C341.897 173.584 342.782 173.012 343.775 172.732C344.767 172.452 345.821 172.476 346.8 172.8C350.124 173.628 354.084 176.952 356.976 183.732C362.612 182.474 367.912 180.018 372.516 176.532C371.77 175.646 371.111 174.689 370.548 173.676C367.44 167.82 368.148 163.056 369.768 160.56C370.3 159.723 371.053 159.049 371.944 158.613C372.836 158.177 373.83 157.996 374.818 158.091C375.805 158.185 376.747 158.551 377.54 159.148C378.333 159.744 378.944 160.549 379.308 161.472C380.508 164.232 380.244 169.032 376.08 174.204C375.336 175.083 374.508 175.886 373.608 176.604C377.473 180.902 382.216 184.319 387.516 186.624C391.632 180.516 396.144 177.996 399.516 177.804C400.527 177.683 401.552 177.863 402.462 178.322C403.371 178.781 404.125 179.498 404.628 180.384C405.152 181.272 405.393 182.299 405.32 183.327C405.247 184.356 404.864 185.338 404.22 186.144C402.336 188.544 397.596 190.32 389.964 188.292C389.244 188.1 388.524 187.86 387.792 187.584C386.171 190.113 384.808 192.798 383.724 195.6C379.464 206.4 376.68 221.04 374.4 244.716ZM388.212 186.924C388.86 187.164 389.508 187.368 390.144 187.536C397.416 189.468 401.856 187.836 403.584 185.652C404.138 184.97 404.466 184.132 404.524 183.255C404.582 182.379 404.367 181.505 403.908 180.756C403.478 180 402.833 179.39 402.056 179.001C401.278 178.612 400.403 178.463 399.54 178.572C396.516 178.8 392.22 181.2 388.248 186.924H388.212ZM345.66 173.4C344.955 173.305 344.237 173.39 343.573 173.648C342.91 173.906 342.323 174.329 341.868 174.876C341.278 175.527 340.903 176.345 340.796 177.217C340.688 178.089 340.853 178.973 341.268 179.748C342.552 182.208 346.62 184.656 354.12 184.128C354.796 184.078 355.469 183.994 356.136 183.876C353.316 177.456 349.548 174.276 346.536 173.556C346.248 173.484 345.955 173.432 345.66 173.4ZM374.712 158.82C373.862 158.733 373.005 158.888 372.239 159.265C371.473 159.643 370.829 160.229 370.38 160.956C368.448 163.86 368.772 168.696 371.208 173.28C371.741 174.251 372.368 175.167 373.08 176.016C373.96 175.3 374.764 174.496 375.48 173.616C378.732 169.572 379.956 164.892 378.6 161.676C378.287 160.882 377.756 160.192 377.068 159.686C376.38 159.181 375.564 158.881 374.712 158.82Z" fill="#455A64"/>
<path d="M381.096 72.384C380.831 72.3658 380.572 72.2953 380.335 72.1768C380.097 72.0582 379.885 71.8938 379.711 71.6931C379.537 71.4924 379.405 71.2593 379.321 71.0072C379.237 70.755 379.204 70.4889 379.224 70.224L380.616 50.208C380.635 49.9433 380.706 49.6848 380.825 49.4475C380.943 49.2101 381.108 48.9985 381.308 48.8247C381.509 48.6508 381.742 48.5182 381.994 48.4344C382.245 48.3505 382.511 48.3171 382.776 48.336C383.041 48.3549 383.299 48.4258 383.537 48.5446C383.774 48.6634 383.986 48.8277 384.159 49.0283C384.333 49.2289 384.466 49.4617 384.55 49.7136C384.634 49.9654 384.667 50.2313 384.648 50.496L383.256 70.512C383.216 71.046 382.967 71.5425 382.562 71.8932C382.157 72.2439 381.63 72.4204 381.096 72.384Z" fill="#F0F0F0"/>
<path d="M422.616 86.832C422.26 86.8037 421.916 86.6838 421.62 86.484C421.4 86.3367 421.211 86.1473 421.065 85.9267C420.918 85.706 420.817 85.4586 420.767 85.1986C420.717 84.9386 420.719 84.6712 420.772 84.412C420.826 84.1527 420.931 83.9066 421.08 83.688L432.3 67.056C432.43 66.7999 432.612 66.5745 432.836 66.3948C433.06 66.2151 433.319 66.0852 433.597 66.0139C433.875 65.9425 434.165 65.9313 434.448 65.9811C434.731 66.0308 434.999 66.1403 435.236 66.3023C435.473 66.4643 435.673 66.6749 435.822 66.9203C435.971 67.1656 436.066 67.4398 436.1 67.7248C436.135 68.0097 436.108 68.2987 436.021 68.5724C435.935 68.8461 435.792 69.0983 435.6 69.312L424.38 85.944C424.185 86.2293 423.921 86.4604 423.613 86.6157C423.304 86.771 422.961 86.8454 422.616 86.832Z" fill="#F0F0F0"/>
<path d="M451.344 120.096C450.899 120.067 450.477 119.892 450.143 119.597C449.808 119.303 449.581 118.906 449.496 118.469C449.411 118.032 449.473 117.578 449.673 117.18C449.873 116.782 450.199 116.461 450.6 116.268L468.6 107.472C469.067 107.302 469.581 107.311 470.043 107.497C470.504 107.683 470.88 108.033 471.099 108.48C471.318 108.926 471.364 109.438 471.228 109.917C471.093 110.395 470.785 110.807 470.364 111.072L452.364 119.856C452.052 120.027 451.699 120.11 451.344 120.096Z" fill="#F0F0F0"/>
<path d="M479.604 164.676L459.6 163.272C459.331 163.261 459.066 163.195 458.822 163.08C458.579 162.964 458.361 162.801 458.181 162.6C458.002 162.399 457.864 162.163 457.777 161.908C457.69 161.653 457.656 161.383 457.675 161.114C457.694 160.845 457.767 160.582 457.89 160.342C458.012 160.102 458.182 159.889 458.388 159.715C458.594 159.541 458.833 159.411 459.091 159.332C459.349 159.252 459.62 159.225 459.888 159.252L479.904 160.644C480.439 160.682 480.936 160.931 481.287 161.336C481.638 161.741 481.814 162.269 481.776 162.804C481.738 163.339 481.489 163.836 481.084 164.187C480.679 164.538 480.151 164.714 479.616 164.676H479.604Z" fill="#F0F0F0"/>
<path d="M461.772 216C461.421 215.974 461.082 215.859 460.788 215.664L444.156 204.444C443.712 204.145 443.405 203.682 443.303 203.156C443.2 202.631 443.311 202.086 443.61 201.642C443.909 201.198 444.372 200.891 444.898 200.789C445.423 200.686 445.968 200.797 446.412 201.096L463.044 212.316C463.413 212.564 463.69 212.927 463.831 213.349C463.973 213.77 463.971 214.227 463.825 214.647C463.68 215.068 463.4 215.428 463.029 215.673C462.657 215.918 462.216 216.033 461.772 216Z" fill="#F0F0F0"/>
<path d="M280.416 202.8C279.971 202.771 279.549 202.596 279.215 202.301C278.88 202.007 278.653 201.61 278.568 201.173C278.483 200.736 278.545 200.282 278.745 199.884C278.945 199.486 279.271 199.165 279.672 198.972L297.672 190.176C297.911 190.025 298.18 189.926 298.46 189.886C298.74 189.846 299.025 189.865 299.297 189.942C299.569 190.019 299.822 190.153 300.039 190.334C300.257 190.515 300.433 190.74 300.558 190.994C300.682 191.248 300.752 191.526 300.762 191.808C300.772 192.091 300.723 192.373 300.617 192.635C300.511 192.898 300.351 193.135 300.148 193.331C299.944 193.528 299.702 193.679 299.436 193.776L281.436 202.572C281.122 202.735 280.77 202.814 280.416 202.8Z" fill="#F0F0F0"/>
<path d="M290.196 150.876L270.18 149.472C269.911 149.461 269.646 149.395 269.402 149.28C269.159 149.164 268.941 149.001 268.761 148.8C268.582 148.599 268.444 148.363 268.357 148.108C268.27 147.853 268.236 147.583 268.255 147.314C268.274 147.045 268.347 146.782 268.47 146.542C268.592 146.302 268.762 146.089 268.968 145.915C269.174 145.741 269.413 145.611 269.671 145.532C269.929 145.452 270.2 145.425 270.468 145.452L290.484 146.844C291.019 146.882 291.516 147.131 291.867 147.536C292.218 147.941 292.394 148.469 292.356 149.004C292.318 149.539 292.069 150.036 291.664 150.387C291.259 150.738 290.731 150.914 290.196 150.876Z" fill="#F0F0F0"/>
<path d="M304.644 109.356C304.292 109.332 303.953 109.216 303.66 109.02L287.028 97.8C286.808 97.6519 286.62 97.4619 286.473 97.2409C286.327 97.0199 286.225 96.7723 286.175 96.5121C286.124 96.2519 286.125 95.9843 286.178 95.7245C286.23 95.4647 286.334 95.2178 286.482 94.998C286.63 94.7782 286.82 94.5897 287.041 94.4433C287.262 94.2968 287.51 94.1954 287.77 94.1447C288.03 94.094 288.298 94.095 288.558 94.1478C288.817 94.2005 289.064 94.3039 289.284 94.452L305.916 105.672C306.285 105.92 306.562 106.283 306.703 106.705C306.845 107.126 306.843 107.583 306.697 108.003C306.552 108.424 306.272 108.784 305.901 109.029C305.529 109.274 305.088 109.389 304.644 109.356Z" fill="#F0F0F0"/>
<path d="M337.92 80.628C337.566 80.6035 337.224 80.4865 336.929 80.2885C336.634 80.0905 336.397 79.8186 336.24 79.5L327.444 61.5C327.274 61.0325 327.283 60.5187 327.469 60.0574C327.655 59.5961 328.005 59.2198 328.452 59.0009C328.898 58.7821 329.41 58.7361 329.889 58.8718C330.367 59.0074 330.779 59.3153 331.044 59.736L339.84 77.736C339.956 77.9746 340.025 78.2339 340.041 78.499C340.057 78.764 340.02 79.0296 339.933 79.2805C339.846 79.5314 339.71 79.7626 339.534 79.9609C339.357 80.1592 339.143 80.3206 338.904 80.436C338.599 80.5855 338.259 80.6517 337.92 80.628Z" fill="#F0F0F0"/>
<path d="M127.98 443.472C128.856 439.74 125.16 437.388 123.408 435.24C120.708 431.928 119.808 424.212 119.904 420.276C119.904 415.356 119.34 411.876 122.4 407.412C126 402.144 131.064 395.988 147.936 380.916L127.2 360C122.856 366.816 111.888 390.708 111.888 390.708L111.168 392.184C109.348 394.626 107.134 396.747 104.616 398.46L103.416 399.048C101.436 400.392 96.396 401.832 96.48 406.548C96.564 411.264 98.4 412.416 100.536 416.268C102.209 418.742 103.05 421.684 102.936 424.668C103.008 428.46 102.852 432.684 102.816 436.08C102.816 438.936 105.42 443.076 110.916 444.936C118.968 447.696 127.116 447.132 127.98 443.472Z" fill="#FFBDA7"/>
<path d="M93.6 406.716C91.2168 409.923 89.204 413.389 87.6 417.048L93.12 424.776L97.752 416.976C95.7001 413.866 94.2887 410.378 93.6 406.716Z" fill="#263238"/>
<path d="M93.144 424.8L100.728 424.272C101.08 422.677 100.81 421.007 99.972 419.604C99.4048 418.609 98.6605 417.727 97.776 417L93.144 424.8Z" fill="black"/>
<path d="M95.148 404.964C94.5622 405.392 94.0651 405.93 93.684 406.548C93.425 409.303 93.9932 412.073 95.316 414.504C96.888 416.904 99.456 419.304 100.116 422.688C100.776 426.072 99.42 433.74 100.752 438.408C102.084 443.076 106.596 448.428 116.424 449.688C123.444 450.588 126.096 449.256 128.424 447.792C129.276 444.756 129.192 443.964 125.352 441.408C121.512 438.852 95.148 404.964 95.148 404.964Z" fill="#263238"/>
<path d="M108.24 392.628C105.084 396.372 103.956 397.812 101.04 399.492C97.524 401.532 96.804 402.348 95.124 404.964C94.416 409.02 95.232 410.688 98.952 415.872C101.508 419.412 102.336 421.74 102.264 426.612C102.18 432.504 100.176 437.88 107.352 443.904C112.944 448.608 125.184 448.92 128.496 445.656C131.34 437.616 123.78 438.036 122.064 429.504C121.116 424.788 121.032 417.66 122.508 412.944C123.158 410.821 123.989 408.757 124.992 406.776C126.192 404.772 127.212 403.308 126.264 402.264L124.476 404.46C122.7 404.844 118.392 403.92 115.548 401.628C108.708 396.132 111.096 392.22 111.096 392.22L111.816 390.744C111.144 389.916 110.028 390.504 108.24 392.628Z" fill="#37474F"/>
<path d="M184.296 204.876C186.024 216.492 191.616 231.06 194.724 258.552C197.64 284.352 198.936 297.804 197.124 310.62C196.476 315.192 194.112 320.544 189.624 327.312C175.548 348.492 147.852 381.84 147.852 381.84C147.852 381.84 141.564 381.732 133.956 375.672C131.775 373.884 129.974 371.679 128.657 369.186C127.34 366.692 126.535 363.961 126.288 361.152C126.288 361.152 127.02 356.352 138.636 336.792C145.79 324.306 150.254 310.461 151.74 296.148L144.168 213.348C162.168 214.932 175.884 211.632 184.296 204.876Z" fill="#263238"/>
<path d="M133.92 375.672C131.739 373.884 129.938 371.679 128.621 369.186C127.304 366.692 126.499 363.961 126.252 361.152C126.252 361.152 126.984 356.352 138.6 336.792C145.754 324.306 150.218 310.461 151.704 296.148L145.908 232.8C160.02 230.616 179.7 230.796 179.7 230.796C180.072 239.868 178.068 251.1 165 257.868C165 257.868 167.4 302.46 167.712 315.468C167.94 325.428 165.048 350.772 163.656 362.268C154.86 373.404 147.816 381.888 147.816 381.888C147.816 381.888 141.528 381.732 133.92 375.672Z" fill="black"/>
<path d="M157.824 423.384L157.908 421.38L159.876 380.652L131.22 387.852L137.592 420.504L137.808 422.196C137.808 422.196 138.108 430.5 150.912 430.968C157.464 431.172 157.824 423.384 157.824 423.384Z" fill="#FFBDA7"/>
<path d="M142.344 460.512L152.292 456.828L152.604 447.372L142.488 451.188L142.344 460.512Z" fill="black"/>
<path d="M132.672 439.32C132.264 442.8 135.072 456.12 135.072 456.12L142.272 460.5L142.416 451.176C142.416 451.176 144.42 452.892 146.544 457.824C148.548 462.48 151.344 466.956 156.024 469.308C160.704 471.66 168.924 472.632 175.86 471.708C180.792 471.072 183.828 468.96 184.656 467.712C184.899 467.082 184.998 466.405 184.944 465.732L132.672 439.32Z" fill="#263238"/>
<path d="M157.908 421.38C159.276 421.272 159.108 422.58 160.848 430.38C162.048 436.224 164.844 446.292 175.464 452.928C179.844 455.664 185.904 457.392 185.064 465.756C182.028 469.824 171.444 470.892 165.108 469.776C152.304 467.52 150.396 462.468 147.192 454.932C144.636 448.932 142.392 448.26 138.96 445.836C136.692 444.24 133.62 441.936 132.72 439.32C132.552 433.584 134.724 429.84 135.492 426.948C136.26 424.056 135.804 420.876 137.64 420.456L137.856 422.148C137.856 422.148 139.572 426.756 148.476 426.948C157.38 427.14 157.872 423.408 157.872 423.408L157.908 421.38Z" fill="#37474F"/>
<path d="M184.296 204.876C184.296 204.876 186.588 219.876 181.704 233.544C177.456 245.424 169.296 252.12 160.716 254.904C160.716 254.904 163.572 308.244 164.316 315.672C165.06 323.1 163.308 350.004 161.688 367.716C160.068 385.428 159.6 391.488 159.6 391.488C159.6 391.488 155.82 395.472 145.2 395.676C134.58 395.88 131.244 391.512 131.244 391.512C131.244 391.512 124.548 371.04 124.272 354.972C124.104 345.768 126.132 341.196 124.38 332.064C122.628 322.932 109.704 282.3 107.52 263.04C105.336 243.78 108.612 226.848 122.316 207.12C137.064 216.744 170.868 214.332 184.296 204.876Z" fill="#263238"/>
<path d="M128.4 210.096C120.972 220.344 110.268 241.488 117.864 271.752C120.024 280.368 122.156 288.684 124.26 296.7C129.144 315.516 132.996 330.384 133.512 336.048C133.698 339.256 133.541 342.474 133.044 345.648C131.983 353.11 131.983 360.685 133.044 368.148C134.376 377.844 136.308 388.02 137.7 394.92C137.256 394.8 136.836 394.68 136.5 394.548C135.108 387.66 133.248 377.748 131.94 368.304C130.864 360.742 130.864 353.066 131.94 345.504C132.424 342.417 132.577 339.287 132.396 336.168C131.892 330.588 128.04 315.768 123.18 297C121.092 288.96 118.932 280.644 116.772 272.04C109.128 241.548 119.796 220.164 127.332 209.64C127.62 209.808 127.98 210 128.4 210.096Z" fill="black"/>
<path d="M231.696 194.148C236.064 196.86 239.556 196.548 243.024 197.364C247.428 198.384 250.896 200.556 256.86 203.304C257.892 203.772 258.9 204.264 259.92 204.744C260.404 205.002 260.905 205.227 261.42 205.416C261.9 205.572 262.308 205.728 262.296 206.376C262.245 206.837 262.027 207.264 261.684 207.576C261.115 208.088 260.446 208.477 259.718 208.716C258.991 208.956 258.222 209.042 257.46 208.968C255.942 208.801 254.441 208.508 252.972 208.092C251.832 207.84 252.372 209.052 252.708 209.592C254.376 212.232 262.776 214.284 265.512 215.664C266.712 216.288 268.404 216.276 268.644 217.92C268.674 218.474 268.755 219.024 268.884 219.564C269.134 220.096 269.448 220.596 269.82 221.052C270.344 221.739 270.611 222.588 270.576 223.452C270.546 223.889 270.387 224.308 270.121 224.656C269.854 225.004 269.49 225.265 269.076 225.408C268.404 225.588 267.66 225.408 267.036 225.672C266.756 225.838 266.487 226.022 266.232 226.224C265.032 227.028 263.448 226.608 261.996 226.56C260.796 226.56 259.596 226.908 258.396 226.92C257.063 226.987 255.727 226.947 254.4 226.8C251.386 226.286 248.428 225.483 245.568 224.4C241.819 222.737 238.431 220.356 235.596 217.392C233.376 214.781 230.532 212.775 227.328 211.56C221.94 209.16 201.156 201.18 193.824 195.9C191.16 193.98 189.828 191.916 181.344 183.192C168.744 170.244 164.796 164.868 164.796 164.868L155.7 134.652C166.176 134.976 170.724 134.1 178.596 142.596C189.624 154.488 206.196 174.996 206.196 174.996C206.196 174.996 228 191.856 231.696 194.148Z" fill="#FFBDA7"/>
<path d="M249.444 208.8C245.412 211.692 239.016 210.096 236.364 208.536C236.364 208.536 239.868 211.812 243.252 211.812C246.972 211.8 248.4 210.504 249.444 208.8Z" fill="#F0997A"/>
<path d="M285.048 372.792L323.448 412.392C323.69 412.648 324.006 412.821 324.352 412.887C324.698 412.952 325.056 412.906 325.374 412.756C325.693 412.605 325.955 412.358 326.124 412.049C326.294 411.74 326.361 411.385 326.316 411.036L319.932 355.836L285.048 372.792Z" fill="#FFA8A7"/>
<path d="M326.316 411.084C326.361 411.433 326.294 411.788 326.124 412.097C325.955 412.406 325.693 412.653 325.374 412.803C325.056 412.954 324.698 413 324.352 412.935C324.006 412.869 323.69 412.696 323.448 412.44L315.948 404.7C317.655 404.792 319.355 404.412 320.86 403.601C322.365 402.79 323.618 401.58 324.48 400.104L324.948 399.288L326.316 411.084Z" fill="#455A64"/>
<path d="M210.948 125.436L213.132 130.056L215.784 135.624L319.944 355.932C318.228 361.932 313.74 366.636 308.436 369.816C300.372 374.676 290.436 375.984 285.072 372.78L180.984 152.58L175.944 141.924C179.592 148.644 214.512 132.228 210.948 125.436Z" fill="#455A64"/>
<path d="M219.324 142.992L224.124 153.312C225.624 156.264 220.152 161.184 213.12 165.312C203.772 170.82 191.016 173.58 189.012 169.68L185.412 162.084L184.212 159.336C186.228 163.236 198.984 160.536 208.32 154.98C215.064 151.008 220.32 146.268 219.42 143.316C219.413 143.202 219.38 143.091 219.324 142.992Z" fill="#EBEBEB"/>
<path d="M220.512 145.584C224.028 152.412 188.94 168.78 185.424 161.94L180.528 151.632C184.044 158.46 219.12 142.032 215.604 135.264L220.512 145.584Z" fill="#BA68C8"/>
<path d="M210.948 125.436L215.748 135.624C219.252 142.308 185.532 158.424 180.948 152.58C180.846 152.473 180.761 152.352 180.696 152.22L175.896 141.924C179.592 148.644 214.512 132.228 210.948 125.436Z" fill="#EBEBEB"/>
<path opacity="0.1" d="M180.984 152.58L175.944 141.924C177.588 144.96 185.832 143.928 193.944 140.496L303.516 372.348L323.496 412.44L285.096 372.84L180.984 152.58Z" fill="black"/>
<path d="M155.076 97.824C155.076 97.716 154.932 97.608 154.872 97.488C152.772 93 158.904 85.68 168.576 81.144C178.248 76.608 187.776 76.56 189.9 81.024L210.936 125.424C212.46 128.328 207.072 133.236 200.136 137.424C190.812 142.968 178.032 145.824 175.956 141.96L155.364 98.508C155.268 98.316 155.184 98.124 155.1 97.92C155.016 97.716 155.088 97.86 155.076 97.824Z" fill="#F28F8F"/>
<path opacity="0.1" d="M166.524 82.176L193.908 140.496C185.892 143.832 177.588 144.972 175.908 141.924L155.364 98.508C155.268 98.316 155.184 98.124 155.1 97.92C155.016 97.716 155.1 97.92 155.1 97.824C155.1 97.728 154.956 97.608 154.896 97.488C152.916 93.336 158.064 86.736 166.524 82.176Z" fill="black"/>
<path d="M154.872 97.488C156.984 101.976 166.524 101.928 176.208 97.392C185.892 92.856 192 85.524 189.912 81.036C187.824 76.548 178.248 76.596 168.576 81.144C158.904 85.692 152.772 93 154.872 97.488Z" fill="#FFA8A7"/>
<path d="M108.252 181.524C108.252 181.524 113.904 178.788 115.452 166.512C116.148 160.932 114.252 153.66 111.852 145.272L127.896 138.288C127.896 138.288 133.2 136.824 144.9 134.688H155.7C155.7 134.688 175.26 142.944 183.216 153.372C187.548 159.06 192.048 171.192 184.416 180.408C185.004 188.664 185.112 205.488 185.112 205.488C185.112 205.488 180.624 213.624 159.06 216.084C128.124 219.684 119.46 208.344 119.46 208.344C118.944 199.524 111.516 190.032 108.252 181.524Z" fill="#BA68C8"/>
<path opacity="0.2" d="M108.252 181.524C108.252 181.524 113.904 178.788 115.452 166.512C116.148 160.932 114.252 153.66 111.852 145.272L127.896 138.288C127.896 138.288 133.2 136.824 144.9 134.688H155.7C155.7 134.688 175.26 142.944 183.216 153.372C187.548 159.06 192.048 171.192 184.416 180.408C185.004 188.664 185.112 205.488 185.112 205.488C185.112 205.488 180.624 213.624 159.06 216.084C128.124 219.684 119.46 208.344 119.46 208.344C118.944 199.524 111.516 190.032 108.252 181.524Z" fill="white"/>
<path d="M161.496 183.324C161.496 183.324 157.02 190.884 145.056 190.596C133.092 190.308 129.516 181.812 129.516 181.812C129.516 181.812 130.44 193.272 144.744 193.56C158.832 193.836 161.496 183.324 161.496 183.324Z" fill="#BA68C8"/>
<path d="M117.756 76.608C119.468 74.5457 121.792 73.0828 124.392 72.432C126.888 71.82 128.412 71.856 130.788 70.884C133.164 69.912 134.988 68.388 137.244 67.44C142.2 65.352 148.164 66.648 152.424 69.924C154.308 71.376 156.024 73.26 158.424 73.608C159.594 73.6978 160.77 73.6978 161.94 73.608C163.799 73.7096 165.604 74.2702 167.193 75.2398C168.783 76.2093 170.107 77.5576 171.048 79.164C172.522 81.6775 173.408 84.4917 173.64 87.396C173.928 90.264 172.932 92.94 173.112 95.796C173.431 97.8698 174.377 99.7962 175.824 101.316C177.588 103.167 178.945 105.366 179.808 107.772C180.552 109.834 180.77 112.049 180.444 114.216C180.264 115.294 179.816 116.31 179.141 117.17C178.466 118.03 177.585 118.706 176.58 119.136C176.959 118.116 177.081 117.019 176.934 115.941C176.788 114.863 176.378 113.838 175.74 112.956C175.938 113.927 175.941 114.928 175.75 115.9C175.558 116.872 175.176 117.797 174.624 118.62C173.508 120.26 172.091 121.673 170.448 122.784C166.851 125.567 162.476 127.16 157.932 127.344C153.132 127.344 148.332 125.724 143.676 126.96C142.385 127.354 141.115 127.814 139.872 128.34C137.711 129.166 135.472 129.769 133.188 130.14C131.004 130.5 128.784 130.332 126.624 130.644C123.05 131.165 119.412 130.307 116.448 128.244C114.551 126.762 113.014 124.872 111.95 122.713C110.886 120.554 110.323 118.183 110.304 115.776C109.504 116.823 109.002 118.067 108.852 119.376C107.797 118.107 107.061 116.604 106.704 114.993C106.347 113.381 106.38 111.708 106.8 110.112C107.46 107.628 109.044 105.408 109.2 102.852C109.356 100.632 108.444 98.496 108.204 96.288C107.995 93.7033 108.681 91.1254 110.147 88.9864C111.613 86.8475 113.77 85.2776 116.256 84.54C115.966 83.1846 115.949 81.7848 116.206 80.4228C116.464 79.0608 116.991 77.7638 117.756 76.608Z" fill="#263238"/>
<path d="M117.816 104.4C120.84 103.128 123.468 104.184 125.22 107.34C126.732 110.088 129.708 108.996 128.82 104.676C135.48 97.884 127.332 93.972 132.804 87.444C136.212 83.376 143.808 84.18 146.916 86.556C147.693 85.0807 148.945 83.9108 150.469 83.2357C151.994 82.5605 153.702 82.4197 155.316 82.836C158.532 83.844 160.608 85.668 162.288 90.036C164.028 94.572 162.408 95.496 163.296 98.712C164.278 100.9 164.929 103.221 165.228 105.6C165.996 120.78 162.972 124.716 159.696 127.332C157.452 129.12 154.548 130.128 149.544 130.344L150.012 136.956C154.18 142.007 156.804 148.152 157.572 154.656C143.172 150.96 135.612 146.076 127.152 139.704L125.712 117.696C125.064 119.448 121.596 121.464 117.948 118.68C113.34 115.2 112.476 106.656 117.816 104.4Z" fill="#FFBDA7"/>
<path d="M160.8 96.924L155.868 95.1C155.969 94.7721 156.136 94.4683 156.359 94.2074C156.581 93.9466 156.855 93.7343 157.164 93.5836C157.472 93.4328 157.808 93.3469 158.15 93.3312C158.493 93.3154 158.835 93.3702 159.156 93.492C159.814 93.7486 160.351 94.246 160.656 94.8833C160.961 95.5206 161.013 96.2501 160.8 96.924Z" fill="#263238"/>
<path d="M141.516 95.688L136.992 98.4C136.797 98.1132 136.664 97.7892 136.6 97.4484C136.536 97.1076 136.543 96.7573 136.621 96.4194C136.699 96.0815 136.845 95.7633 137.052 95.4846C137.258 95.206 137.519 94.9729 137.82 94.8C138.433 94.4492 139.157 94.3457 139.844 94.5107C140.531 94.6758 141.129 95.0969 141.516 95.688Z" fill="#263238"/>
<path d="M144.192 113.772L151.548 116.052C151.386 116.563 151.12 117.035 150.765 117.438C150.411 117.841 149.977 118.165 149.491 118.391C149.004 118.617 148.476 118.739 147.94 118.749C147.403 118.76 146.871 118.659 146.376 118.452C145.921 118.294 145.503 118.046 145.145 117.724C144.788 117.401 144.498 117.01 144.295 116.574C144.091 116.137 143.977 115.664 143.959 115.183C143.942 114.702 144.021 114.222 144.192 113.772Z" fill="#B16668"/>
<path d="M148.5 118.656C148.378 117.662 147.89 116.748 147.132 116.094C146.373 115.439 145.398 115.091 144.396 115.116C144.272 115.104 144.148 115.104 144.024 115.116C144.011 115.852 144.238 116.573 144.671 117.168C145.104 117.764 145.719 118.202 146.424 118.416C147.086 118.663 147.799 118.746 148.5 118.656Z" fill="#F28F8F"/>
<path d="M148.68 98.196L150.288 111.768L157.716 108.972L148.68 98.196Z" fill="#F0997A"/>
<path d="M140.928 104.472C142.141 104.472 143.124 103.489 143.124 102.276C143.124 101.063 142.141 100.08 140.928 100.08C139.715 100.08 138.732 101.063 138.732 102.276C138.732 103.489 139.715 104.472 140.928 104.472Z" fill="#263238"/>
<path d="M158.04 103.512C159.253 103.512 160.236 102.529 160.236 101.316C160.236 100.103 159.253 99.12 158.04 99.12C156.827 99.12 155.844 100.103 155.844 101.316C155.844 102.529 156.827 103.512 158.04 103.512Z" fill="#263238"/>
<path d="M149.544 130.332C144.66 130.2 136.344 130.2 132.192 124.86C132.192 124.86 132.828 128.1 137.868 130.476C141.468 132.144 149.688 132.624 149.688 132.624L149.544 130.332Z" fill="#F0997A"/>
<path d="M221.268 204.768C220.836 205.608 219.816 205.968 219.468 206.76C219.377 207.195 219.377 207.645 219.468 208.08C219.497 208.689 219.394 209.297 219.166 209.862C218.938 210.428 218.591 210.937 218.148 211.356C217.846 211.583 217.575 211.849 217.344 212.148C217.163 212.493 217.042 212.867 216.984 213.252C216.503 214.939 215.53 216.443 214.188 217.572C213.624 218.052 212.988 218.532 212.412 218.964C210.862 220.097 209.145 220.983 207.324 221.592C202.965 222.748 198.477 223.345 193.968 223.368C189.168 223.368 184.764 222.168 177.24 222.6C166.248 223.188 143.364 223.632 135.864 223.488C128.364 223.344 125.136 222.72 120.54 213.36C116.856 205.884 115.68 203.604 108.264 186.696C98.52 164.4 98.544 151.38 111.864 145.272C119.064 147.396 123.984 156.072 127.632 165.348C131.892 176.052 141.732 199.428 141.732 199.428C141.732 199.428 175.632 202.932 181.524 202.656C187.056 202.38 192.108 200.004 197.256 198.216C198.792 197.676 200.256 197.016 201.768 196.476L204.024 201.276C203.623 201.849 203.147 202.366 202.608 202.812C201.936 203.388 200.352 204.6 201.408 205.488C202.464 206.376 204.252 205.908 205.944 205.392C207.036 205.056 208.032 204.648 208.668 204.444C211.268 203.444 213.939 202.642 216.66 202.044C217.332 201.863 218.034 201.818 218.724 201.911C219.414 202.003 220.079 202.232 220.68 202.584C220.869 202.682 221.035 202.819 221.168 202.984C221.301 203.15 221.398 203.342 221.454 203.547C221.509 203.752 221.521 203.967 221.489 204.177C221.457 204.387 221.382 204.588 221.268 204.768Z" fill="#FFBDA7"/>
<path d="M204 201.276C203.558 202.07 202.995 202.791 202.332 203.412C201.72 204 201.132 204.852 201.66 205.068C202.86 205.86 204.888 205.068 206.268 204.648C209.664 203.556 213.084 202.248 216.672 202.08C213.264 203.172 210.036 204.66 206.628 205.788C205.307 206.316 203.883 206.538 202.464 206.436C201.264 206.34 200.064 205.164 200.916 203.976C201.768 202.788 203.1 202.368 204 201.276Z" fill="#F0997A"/>
<path d="M141.708 199.428C151.74 199.956 162.216 200.928 172.212 201.624C174.756 201.816 177.288 202.02 179.82 202.104C184.884 202.32 189.744 200.544 194.484 198.9L201.744 196.5C194.664 199.332 187.62 203.328 179.796 203.22C167.044 202.619 154.331 201.361 141.708 199.452V199.428Z" fill="#F0997A"/>
<path d="M314.028 415.596C303.984 410.124 291.96 409.08 280.68 410.928C269.4 412.776 258.744 417.336 248.58 422.556C244.644 424.584 240.18 426.768 235.992 425.4C231.804 424.032 229.212 419.028 229.608 414.492C230.004 409.956 232.644 405.9 235.788 402.612C247.32 390.552 266.28 386.136 282.12 391.392C296.088 396.012 306.372 405.156 314.028 415.596Z" fill="#BA68C8"/>
<path opacity="0.6" d="M314.028 415.596C303.984 410.124 291.96 409.08 280.68 410.928C269.4 412.776 258.744 417.336 248.58 422.556C244.644 424.584 240.18 426.768 235.992 425.4C231.804 424.032 229.212 419.028 229.608 414.492C230.004 409.956 232.644 405.9 235.788 402.612C247.32 390.552 266.28 386.136 282.12 391.392C296.088 396.012 306.372 405.156 314.028 415.596Z" fill="white"/>
<path d="M248.472 382.056C250.648 381.625 252.869 381.468 255.084 381.588C256.092 381.648 257.052 381.864 258.06 382.008C259.132 382.152 260.192 382.38 261.228 382.692C260.85 382.112 260.398 381.583 259.884 381.12C258.43 379.638 256.754 378.391 254.916 377.424C249.058 374.276 242.61 372.38 235.98 371.856C231.588 371.515 227.17 371.814 222.864 372.744C217.188 373.944 211.368 376.632 208.464 381.708C207.132 384.108 206.568 387.084 207.84 389.484C208.374 390.394 209.095 391.18 209.956 391.79C210.816 392.4 211.797 392.821 212.832 393.024C214.902 393.416 217.031 393.375 219.084 392.904C224.22 391.908 229.02 389.688 233.76 387.48C238.5 385.272 243.336 383.052 248.472 382.056Z" fill="#BA68C8"/>
<path opacity="0.35" d="M248.472 382.056C250.648 381.625 252.869 381.468 255.084 381.588C256.092 381.648 257.052 381.864 258.06 382.008C259.132 382.152 260.192 382.38 261.228 382.692C260.85 382.112 260.398 381.583 259.884 381.12C258.43 379.638 256.754 378.391 254.916 377.424C249.058 374.276 242.61 372.38 235.98 371.856C231.588 371.515 227.17 371.814 222.864 372.744C217.188 373.944 211.368 376.632 208.464 381.708C207.132 384.108 206.568 387.084 207.84 389.484C208.374 390.394 209.095 391.18 209.956 391.79C210.816 392.4 211.797 392.821 212.832 393.024C214.902 393.416 217.031 393.375 219.084 392.904C224.22 391.908 229.02 389.688 233.76 387.48C238.5 385.272 243.336 383.052 248.472 382.056Z" fill="white"/>
<path d="M244.932 361.5C253.86 369.792 264.024 374.832 275.208 379.14C268.788 372.324 264.648 363.996 261.384 355.308C258.12 346.62 257.136 337.308 255.528 328.152C254.628 322.98 252.948 317.772 249.444 313.872C245.94 309.972 240.312 307.656 235.308 309.216C230.928 310.596 227.784 314.7 226.608 319.14C225.623 323.646 225.796 328.328 227.112 332.748C229.968 343.932 236.484 353.64 244.932 361.5Z" fill="#BA68C8"/>
<g opacity="0.2">
<path d="M244.932 361.5C253.86 369.792 264.024 374.832 275.208 379.14C268.788 372.324 264.648 363.996 261.384 355.308C258.12 346.62 257.136 337.308 255.528 328.152C254.628 322.98 252.948 317.772 249.444 313.872C245.94 309.972 240.312 307.656 235.308 309.216C230.928 310.596 227.784 314.7 226.608 319.14C225.623 323.646 225.796 328.328 227.112 332.748C229.968 343.932 236.484 353.64 244.932 361.5Z" fill="white"/>
</g>
<path d="M234.54 306.168C232.152 307.084 230.005 308.533 228.263 310.405C226.52 312.276 225.228 314.521 224.484 316.968C224.232 317.844 223.86 318.912 222.96 319.044C222.06 319.176 221.28 317.964 221.136 316.932C220.056 308.88 228.684 306.288 234.54 306.168Z" fill="#BA68C8"/>
<path d="M357.876 375.708C347.172 383.52 336.696 394.38 333 407.496C329.292 386.196 336.06 362.652 347.916 344.94C359.34 327.864 380.556 312.072 402.12 320.856C407.616 323.088 412.248 328.056 412.788 334.056C413.268 339.288 410.544 344.388 406.788 348.012C403.032 351.636 398.208 354.012 393.48 356.292C381.252 362.112 368.808 367.716 357.876 375.708Z" fill="#BA68C8"/>
<path opacity="0.35" d="M357.876 375.708C347.172 383.52 336.696 394.38 333 407.496C329.292 386.196 336.06 362.652 347.916 344.94C359.34 327.864 380.556 312.072 402.12 320.856C407.616 323.088 412.248 328.056 412.788 334.056C413.268 339.288 410.544 344.388 406.788 348.012C403.032 351.636 398.208 354.012 393.48 356.292C381.252 362.112 368.808 367.716 357.876 375.708Z" fill="white"/>
<path d="M317.016 297.408C317.556 306.432 321.888 317.22 324.276 324.216C327.876 334.716 331.236 346.032 328.368 356.76C335.952 346.98 343.14 335.808 346.5 323.808C350.016 311.196 349.62 296.82 339.996 286.836C333.72 280.332 320.688 279.852 317.688 289.956C317.039 292.383 316.812 294.904 317.016 297.408Z" fill="#BA68C8"/>
<path opacity="0.6" d="M317.016 297.408C317.556 306.432 321.888 317.22 324.276 324.216C327.876 334.716 331.236 346.032 328.368 356.76C335.952 346.98 343.14 335.808 346.5 323.808C350.016 311.196 349.62 296.82 339.996 286.836C333.72 280.332 320.688 279.852 317.688 289.956C317.039 292.383 316.812 294.904 317.016 297.408Z" fill="white"/>
<path d="M396.24 308.172C393.02 307.543 389.687 307.855 386.64 309.072C383.21 310.507 380.353 313.039 378.516 316.272C381.744 314.424 386.808 312.828 395.22 314.028C403.284 315.168 408.084 318.972 409.788 321.048C409.644 317.028 406.44 312.768 402.996 310.704C400.911 309.468 398.624 308.611 396.24 308.172Z" fill="#BA68C8"/>
<path d="M458.772 332.4L460.764 325.32C459.888 321.264 476.448 330.828 477.324 334.92L471.984 349.32C471.799 349.753 471.485 350.117 471.084 350.364C469.884 351.084 462.012 355.572 461.628 355.8C461.33 355.982 460.994 356.094 460.646 356.128C460.298 356.162 459.947 356.116 459.619 355.995C459.291 355.874 458.995 355.68 458.753 355.428C458.51 355.176 458.328 354.872 458.22 354.54L451.308 330.828C450.876 328.8 454.692 330.084 458.772 332.4Z" fill="#37474F"/>
<path d="M439.86 233.808L502.8 270.132C503.42 270.535 503.935 271.078 504.305 271.719C504.674 272.359 504.886 273.078 504.924 273.816V348.42C504.876 349.146 504.657 349.85 504.286 350.475C503.915 351.1 503.402 351.63 502.788 352.02L495.324 356.4C494.66 356.73 493.929 356.901 493.188 356.901C492.447 356.901 491.716 356.73 491.052 356.4L428.088 320.076C427.468 319.673 426.953 319.13 426.583 318.489C426.214 317.849 426.002 317.13 425.964 316.392V241.704C426.005 240.967 426.22 240.25 426.591 239.612C426.963 238.973 427.48 238.432 428.1 238.032L435.588 233.784C436.254 233.458 436.986 233.29 437.727 233.295C438.468 233.299 439.198 233.474 439.86 233.808Z" fill="#37474F"/>
<path d="M428.088 240.468L491.052 276.792C491.672 277.195 492.188 277.739 492.559 278.379C492.931 279.019 493.146 279.737 493.188 280.476V355.092C493.188 356.448 492.228 357 491.052 356.292L466.956 342.396L462.528 354.672C462.341 355.102 462.028 355.465 461.63 355.712C461.231 355.959 460.767 356.079 460.299 356.056C459.831 356.032 459.381 355.866 459.01 355.581C458.638 355.295 458.363 354.902 458.22 354.456L452.4 333.984L428.148 319.992C427.528 319.589 427.013 319.045 426.643 318.405C426.274 317.765 426.062 317.046 426.024 316.308V241.704C426 240.348 426.912 239.796 428.088 240.468Z" fill="#FAFAFA"/>
<path d="M427.2 241.2C427.354 241.212 427.502 241.261 427.632 241.344L490.596 277.668C491.061 277.976 491.449 278.387 491.728 278.87C492.007 279.354 492.17 279.895 492.204 280.452V355.068C492.204 355.392 492.12 355.524 492.06 355.548C491.905 355.535 491.756 355.481 491.628 355.392L467.472 341.52L466.404 340.896L465.984 342.096L461.568 354.336C461.47 354.581 461.298 354.79 461.076 354.933C460.854 355.076 460.593 355.147 460.33 355.135C460.066 355.123 459.812 355.029 459.604 354.867C459.396 354.704 459.244 354.481 459.168 354.228L453.288 333.732L453.168 333.324L452.808 333.12L428.556 319.128C428.094 318.816 427.71 318.404 427.431 317.921C427.153 317.439 426.987 316.9 426.948 316.344V241.704C426.948 241.38 427.032 241.236 427.056 241.224M427.056 240.18C426.36 240.18 425.856 240.744 425.856 241.704V316.308C425.894 317.046 426.106 317.765 426.475 318.405C426.845 319.045 427.36 319.589 427.98 319.992L452.4 333.984L458.28 354.48C458.425 354.949 458.719 355.359 459.118 355.646C459.516 355.934 459.997 356.085 460.488 356.076C460.936 356.082 461.375 355.953 461.749 355.707C462.124 355.462 462.416 355.109 462.588 354.696L467.016 342.42L491.112 356.316C491.399 356.489 491.725 356.588 492.06 356.604C492.768 356.604 493.26 356.052 493.26 355.092V280.476C493.218 279.737 493.003 279.019 492.631 278.379C492.26 277.739 491.744 277.195 491.124 276.792L428.16 240.468C427.874 240.292 427.548 240.192 427.212 240.18H427.056Z" fill="#37474F"/>
<path d="M426 241.32C426.168 240.24 427.044 239.856 428.112 240.468L491.064 276.792C491.691 277.188 492.207 277.738 492.564 278.388L504.3 271.644C503.938 271.017 503.421 270.492 502.8 270.12L439.836 233.796C439.172 233.466 438.441 233.294 437.7 233.294C436.959 233.294 436.228 233.466 435.564 233.796L428.076 238.044C427.521 238.416 427.05 238.899 426.692 239.463C426.335 240.027 426.099 240.66 426 241.32Z" fill="#455A64"/>
<path d="M441.384 264.228V282.42L443.04 283.344V277.608C443.04 274.512 445.56 273.456 448.656 275.208L456.384 279.66V312.48C456.384 316.08 454.188 317.7 451.476 316.14L446.676 313.344V315.324L472.932 330.48V328.56L468.132 325.764C465.42 324.204 463.224 320.028 463.224 316.44V283.62L470.952 288.084C474.06 289.872 476.568 293.832 476.568 296.928V302.664L478.224 303.648V285.456L441.384 264.228Z" fill="#455A64"/>
</svg>
